<?xml version="1.0" encoding="UTF-8"?>
<svg id="wires" xmlns="http://www.w3.org/2000/svg" version="1.1" viewBox="0 0 225 225">
  <!-- Generator: Adobe Illustrator 29.8.3, SVG Export Plug-In . SVG Version: 2.1.1 Build 3)  -->
  <defs>
    <style>
      .st0 {
        fill: #231f20;
        stroke: #000;
        stroke-miterlimit: 10;
        stroke-width: .25px;
      }

      .st1 {
        fill: #0ea94b;
      }
    </style>
  </defs>
  <path class="st0" d="M60.79,42.77l-18.35,121.01,121.79,18.47,18.35-121.01-121.79-18.47ZM122.86,126.12l-24.72-3.75,3.75-24.72,24.72,3.75-3.75,24.72Z"/>
  <g>
    <path class="st1" d="M161.92,62.7c.27.04.5.21.61.43l19.46,2.9-.15.99-19.46-2.9c-.18.19-.45.28-.71.24-.45-.07-.77-.5-.71-.95s.5-.77.95-.71Z"/>
    <path class="st1" d="M94.6,151.24c-.04.27-.21.49-.44.61l-2.95,19.45-.99-.15,2.95-19.45c-.19-.18-.28-.45-.24-.71.07-.45.5-.77.96-.7s.77.5.7.96Z"/>
    <path class="st1" d="M69.41,157.41c-.02.14-.11.25-.22.31l-1.52,10.01-.5-.08,1.52-10.01c-.09-.09-.14-.23-.12-.37.04-.23.26-.4.49-.36s.39.26.36.49Z"/>
    <path class="st1" d="M102.82,157.23c-.03.21-.14.38-.29.48l-2.27,14.97-.62-.09,2.27-14.97c-.11-.13-.16-.34-.13-.54.05-.35.33-.6.62-.56s.48.37.42.72Z"/>
    <path class="st1" d="M79.22,152.85l-2.47,16.26.85.13,2.34-15.41,4.95.75,1.01-6.67c.21-.1.38-.31.41-.56.06-.41-.23-.8-.63-.86s-.79.22-.86.63c-.04.25.05.5.23.66l-.88,5.82-4.95-.75Z"/>
    <path class="st1" d="M112.4,155.06l-2.88,19.01-.99-.15,2.73-18.02-5.79-.88,1.18-7.8c-.2-.18-.31-.47-.27-.77.07-.48.53-.81,1-.74s.81.52.74,1c-.04.3-.23.54-.48.65l-1.03,6.81,5.79.88Z"/>
    <path class="st1" d="M143.97,163.99c-.05.32-.34.53-.66.48-.19-.03-.35-.15-.43-.32l-7.79-1.18-.46,3.06-4.21-.64-1.76,11.58-.65-.1,1.85-12.23,4.21.64,1.21-7.98c-.13-.12-.2-.31-.18-.5.05-.31.34-.53.66-.48s.53.35.48.66c-.03.19-.15.35-.32.43l-.75,4.91,7.79,1.18c.13-.13.31-.2.5-.18.32.05.53.34.48.66Z"/>
    <path class="st1" d="M53.7,141.12c-.03.22.07.45.26.59l-1.51,9.99,5.93.9-2.03,13.41.91.14,2.15-14.16-5.93-.9.42-2.8,2.65.4c.12.19.34.34.61.38.45.07.85-.17.9-.54s-.26-.71-.7-.78c-.27-.04-.53.04-.7.19l-2.65-.4.86-5.69c.23-.08.39-.26.43-.49.05-.36-.26-.71-.7-.78s-.85.18-.9.54Z"/>
    <path class="st1" d="M167.72,78.23l12.13,1.9.11-.72-11.41-1.79.67-4.26c.15-.09.26-.25.28-.43.04-.32-.19-.6-.51-.63-.31-.04-.6.19-.63.5-.02.17.04.33.14.44l-.78,4.98Z"/>
    <path class="st1" d="M161.06,155.89l-3.85,25.41-1.66-.25,3.63-23.91-9.82-1.49c-.29.25-.72.35-1.13.28-.73-.14-1.19-.77-1.06-1.42.11-.65.81-1.07,1.52-.93.38.07.7.29.88.57l11.5,1.74Z"/>
    <path class="st1" d="M74.47,148.84l-2.95,19.47-.99-.15,2.78-18.32-5.85-.89c-.18.2-.44.29-.68.24-.43-.09-.69-.55-.6-1.06.09-.5.51-.83.93-.74.23.05.41.2.51.41l6.85,1.04Z"/>
    <path class="st1" d="M131.22,159.66c-.07.48-.53.81-1,.74s-.82-.52-.75-1c.04-.3.24-.54.49-.66l.66-4.33-6.09-.92-.71,4.68-6.43-.97-2.68,17.69-.99-.15,2.83-18.68,6.43.97,1.85-12.18c-.2-.18-.31-.47-.27-.77.07-.47.52-.81,1-.74s.81.53.74,1c-.04.3-.23.54-.48.65l-1.14,7.5,7.08,1.07-.81,5.33c.2.19.31.47.27.77Z"/>
    <path class="st1" d="M155.37,105.87c.27.04.49.21.61.44l19.45,2.94-.15.99-19.45-2.94c-.18.19-.45.28-.71.24-.45-.07-.77-.5-.71-.96s.5-.77.96-.71Z"/>
    <path class="st1" d="M161.54,131.05c.14.02.25.11.32.22l10.01,1.51-.08.5-10.01-1.51c-.09.09-.23.14-.37.12-.23-.04-.4-.26-.36-.49s.26-.39.49-.36Z"/>
    <path class="st1" d="M161.36,97.65c.21.03.38.14.48.29l14.97,2.26-.09.62-14.97-2.26c-.13.11-.34.16-.54.13-.35-.05-.6-.33-.56-.62s.37-.48.72-.42Z"/>
    <path class="st1" d="M156.99,121.25l16.26,2.45.13-.85-15.41-2.33.75-4.95-6.67-1.01c-.1-.21-.31-.37-.56-.41-.41-.06-.8.23-.86.63s.22.79.63.86c.25.04.5-.05.66-.23l5.83.88-.75,4.95Z"/>
    <path class="st1" d="M159.2,88.06l19.01,2.87-.15.99-18.03-2.72-.87,5.79-7.8-1.18c-.18.21-.47.31-.77.27-.48-.07-.81-.53-.74-1s.52-.81,1-.74c.3.04.54.23.66.48l6.81,1.03.87-5.79Z"/>
    <path class="st1" d="M140.07,145.98c.27.04.54-.06.71-.25l12.15,1.84.9-5.93,16.32,2.46.14-.91-17.24-2.6-.9,5.93-3.4-.51.4-2.65c.23-.11.4-.33.45-.6.07-.45-.23-.86-.68-.92s-.86.23-.92.68c-.04.27.06.53.25.71l-.4,2.65-6.93-1.05c-.11-.23-.33-.4-.6-.45-.44-.07-.86.23-.92.68s.24.86.68.92Z"/>
    <path class="st1" d="M152.98,125.99l19.47,2.94-.15.99-18.32-2.77-.88,5.85c.2.18.29.44.24.68-.09.43-.55.7-1.06.6-.5-.08-.83-.51-.75-.93.05-.23.2-.41.41-.51l1.03-6.85Z"/>
    <path class="st1" d="M163.78,69.24c.48.07.81.53.74,1s-.52.82-1,.75c-.3-.04-.54-.24-.66-.49l-4.33-.65-.92,6.09,4.68.71-.97,6.43,17.69,2.67-.15.99-18.68-2.82.97-6.43-12.18-1.84c-.18.21-.47.31-.77.27-.47-.07-.81-.52-.74-1s.53-.81,1-.74c.3.04.54.23.66.48l7.5,1.13,1.07-7.08,5.33.8c.19-.2.47-.31.77-.27Z"/>
    <path class="st1" d="M129.57,73.64c.04-.27.2-.5.43-.62l2.78-19.47.99.14-2.78,19.47c.19.18.28.44.24.71-.06.46-.49.78-.95.71s-.78-.49-.71-.95Z"/>
    <path class="st1" d="M154.67,67.46c.02-.14.1-.26.22-.32l1.43-10.02.5.07-1.43,10.02c.1.09.14.23.12.37-.03.23-.25.4-.49.37s-.4-.25-.36-.49Z"/>
    <path class="st1" d="M121.31,67.64c.03-.21.14-.38.28-.48l2.14-14.99.62.09-2.14,14.99c.11.13.17.33.14.54-.05.35-.33.61-.61.57s-.48-.36-.43-.71Z"/>
    <path class="st1" d="M144.92,72.01l2.32-16.28-.85-.12-2.2,15.43-4.96-.71-.95,6.68c-.21.1-.37.31-.41.56-.06.41.23.79.64.85s.79-.22.85-.64c.04-.25-.06-.5-.23-.66l.83-5.83,4.96.71Z"/>
    <path class="st1" d="M111.75,69.82l2.71-19.04.99.14-2.57,18.05,5.8.83-1.11,7.81c.21.18.32.47.27.77-.07.49-.52.81-1,.75s-.82-.51-.75-1c.04-.3.23-.54.48-.66l.97-6.82-5.8-.83Z"/>
    <path class="st1" d="M80.13,61c.05-.32.33-.53.65-.49.19.03.35.15.43.31l7.8,1.11.44-3.07,4.21.6,1.65-11.6.65.09-1.75,12.25-4.21-.6-1.14,7.99c.14.12.21.31.18.5-.04.31-.33.53-.65.49s-.53-.34-.49-.65c.03-.19.15-.36.31-.43l.7-4.92-7.8-1.11c-.12.13-.31.21-.5.18-.32-.05-.53-.33-.49-.65Z"/>
    <path class="st1" d="M63.15,69l3.63-25.45,1.66.24-3.41,23.94,9.84,1.4c.29-.25.71-.36,1.13-.29.73.13,1.2.76,1.07,1.42-.11.65-.8,1.07-1.51.94-.38-.07-.71-.29-.89-.56l-11.51-1.64Z"/>
    <path class="st1" d="M92.9,65.34c.07-.49.52-.81,1-.75s.83.51.76,1c-.04.3-.24.54-.49.67l-.62,4.34,6.1.87.67-4.68,6.43.92,2.52-17.71.99.14-2.67,18.7-6.43-.92-1.74,12.2c.21.18.32.47.27.77-.07.48-.51.82-1,.75s-.81-.52-.75-1c.04-.3.23-.54.48-.66l1.07-7.51-7.09-1.01.76-5.34c-.21-.19-.32-.47-.27-.77Z"/>
    <path class="st1" d="M69.69,118.76c-.27-.04-.5-.2-.62-.43l-19.47-2.76.14-.99,19.47,2.76c.18-.19.44-.28.71-.24.46.06.78.49.71.95s-.49.78-.95.71Z"/>
    <path class="st1" d="M63.51,93.66c-.14-.02-.26-.1-.32-.22l-10.02-1.42.07-.5,10.02,1.42c.09-.1.23-.14.37-.12.23.03.4.25.37.48s-.25.4-.49.36Z"/>
    <path class="st1" d="M63.7,127.02c-.21-.03-.38-.14-.48-.28l-14.99-2.13.09-.62,14.99,2.13c.13-.11.33-.17.54-.14.35.05.61.33.57.61s-.36.48-.71.43Z"/>
    <path class="st1" d="M68.07,103.41l-16.28-2.31-.12.85,15.43,2.19-.7,4.96,6.68.95c.1.21.31.37.56.41.41.06.79-.23.85-.64s-.22-.79-.64-.85c-.25-.04-.5.06-.66.24l-5.83-.83.7-4.96Z"/>
    <path class="st1" d="M65.87,136.57l-19.04-2.7.14-.99,18.05,2.56.82-5.8,7.81,1.11c.18-.21.47-.32.77-.28.49.07.82.52.75.99s-.51.82-.99.75c-.3-.04-.54-.23-.66-.48l-6.82-.97-.82,5.8Z"/>
    <path class="st1" d="M84.94,78.55c-.27-.04-.54.06-.71.25l-12.17-1.73-.84,5.94-16.34-2.32-.13.91,17.26,2.45.84-5.94,3.41.48-.38,2.65c-.23.12-.4.33-.44.61-.06.45.24.85.69.92s.85-.24.92-.69c.04-.27-.06-.53-.25-.71l.38-2.65,6.93.98c.11.23.33.4.61.44.44.06.85-.24.92-.69s-.25-.86-.69-.92Z"/>
    <path class="st1" d="M72.09,98.64l-19.5-2.77.14-.99,18.34,2.6.83-5.86c-.2-.18-.29-.44-.25-.68.08-.43.55-.7,1.05-.61.5.08.84.5.75.93-.04.23-.2.42-.4.52l-.97,6.86Z"/>
  </g>
</svg>